<svg width="32" height="33" viewBox="0 0 32 33" fill="none" xmlns="http://www.w3.org/2000/svg">
<g clip-path="url(#clip0_329_323)">
<path d="M4.375 6.35059C4.375 5.66021 4.93462 5.10059 5.625 5.10059C6.31537 5.10059 6.875 5.66021 6.875 6.35059C6.875 7.04096 6.31537 7.60059 5.625 7.60059C4.93462 7.60059 4.375 7.04096 4.375 6.35059Z" fill="white"/>
<path d="M8.75 6.35059C8.75 5.66021 9.30962 5.10059 10 5.10059C10.6904 5.10059 11.25 5.66021 11.25 6.35059C11.25 7.04096 10.6904 7.60059 10 7.60059C9.30962 7.60059 8.75 7.04096 8.75 6.35059Z" fill="white"/>
<path d="M29.5 26.1678V27.1006C29.5 27.7898 28.9392 28.3506 28.25 28.3506H3.75C3.06075 28.3506 2.5 27.7898 2.5 27.1006V5.10059C2.5 4.41134 3.06075 3.85059 3.75 3.85059H28.25C28.9392 3.85059 29.5 4.41134 29.5 5.10059V13.9847L32 16.4847V5.10059C32 3.03284 30.3177 1.35059 28.25 1.35059H3.75C1.68225 1.35059 0 3.03284 0 5.10059V27.1006C0 29.1683 1.68225 30.8506 3.75 30.8506H28.25C30.3177 30.8506 32 29.1683 32 27.1006V23.6678L29.5 26.1678Z" fill="white"/>
<path fill-rule="evenodd" clip-rule="evenodd" d="M30.75 8.85059H1.25V11.3506H30.75V8.85059Z" fill="#0665FF"/>
<path d="M4.375 6.35059C4.375 5.66021 4.93462 5.10059 5.625 5.10059C6.31537 5.10059 6.875 5.66021 6.875 6.35059C6.875 7.04096 6.31537 7.60059 5.625 7.60059C4.93462 7.60059 4.375 7.04096 4.375 6.35059Z" fill="#0665FF"/>
<path d="M8.75 6.35059C8.75 5.66021 9.30962 5.10059 10 5.10059C10.6904 5.10059 11.25 5.66021 11.25 6.35059C11.25 7.04096 10.6904 7.60059 10 7.60059C9.30962 7.60059 8.75 7.04096 8.75 6.35059Z" fill="#0665FF"/>
<path fill-rule="evenodd" clip-rule="evenodd" d="M7.10352 20.0381C7.10352 22.7995 9.3421 25.0381 12.1035 25.0381C14.8649 25.0381 17.1035 22.7995 17.1035 20.0381C17.1035 17.2767 14.8649 15.0381 12.1035 15.0381C9.3421 15.0381 7.10352 17.2767 7.10352 20.0381ZM12.1035 22.5381C10.7228 22.5381 9.60352 21.4188 9.60352 20.0381C9.60352 18.6574 10.7228 17.5381 12.1035 17.5381C13.4842 17.5381 14.6035 18.6574 14.6035 20.0381C14.6035 21.4188 13.4842 22.5381 12.1035 22.5381Z" fill="#0665FF"/>
<path fill-rule="evenodd" clip-rule="evenodd" d="M7.9787 25.9307L11.059 22.8504L9.2912 21.0826L6.21094 24.1629L7.9787 25.9307Z" fill="#0665FF"/>
<path fill-rule="evenodd" clip-rule="evenodd" d="M14.8537 19.0557L17.9965 15.9129L16.2287 14.1451L13.0859 17.2879L14.8537 19.0557Z" fill="#0665FF"/>
<path fill-rule="evenodd" clip-rule="evenodd" d="M17.9966 24.1629L14.8537 21.02L13.0859 22.7878L16.2288 25.9307L17.9966 24.1629Z" fill="#0665FF"/>
<path fill-rule="evenodd" clip-rule="evenodd" d="M11.2465 17.4129L7.9787 14.1451L6.21094 15.9129L9.4787 19.1807L11.2465 17.4129Z" fill="#0665FF"/>
<path fill-rule="evenodd" clip-rule="evenodd" d="M13.375 27.1006V23.0381H10.875V27.1006H13.375Z" fill="#0665FF"/>
<path fill-rule="evenodd" clip-rule="evenodd" d="M13.375 17.2881V12.9756H10.875V17.2881H13.375Z" fill="#0665FF"/>
<path fill-rule="evenodd" clip-rule="evenodd" d="M14.6055 21.2881H19.1888V18.7881H14.6055V21.2881Z" fill="#0665FF"/>
<path fill-rule="evenodd" clip-rule="evenodd" d="M5 21.2881H9.35387V18.7881H5V21.2881Z" fill="#0665FF"/>
<path fill-rule="evenodd" clip-rule="evenodd" d="M21.6875 21.2881H30.2257V18.7881H21.6875V21.2881Z" fill="#0665FF"/>
<path fill-rule="evenodd" clip-rule="evenodd" d="M28.5204 20.0761L24.5293 24.0672L26.2971 25.835L32.0559 20.0761L26.2971 14.3172L24.5293 16.085L28.5204 20.0761Z" fill="#0665FF"/>
<path d="M29.5 26.1678V27.1006C29.5 27.7898 28.9392 28.3506 28.25 28.3506H3.75C3.06075 28.3506 2.5 27.7898 2.5 27.1006V5.10059C2.5 4.41134 3.06075 3.85059 3.75 3.85059H28.25C28.9392 3.85059 29.5 4.41134 29.5 5.10059V13.9847L32 16.4847V5.10059C32 3.03284 30.3177 1.35059 28.25 1.35059H3.75C1.68225 1.35059 0 3.03284 0 5.10059V27.1006C0 29.1683 1.68225 30.8506 3.75 30.8506H28.25C30.3177 30.8506 32 29.1683 32 27.1006V23.6678L29.5 26.1678Z" fill="#0665FF"/>
</g>
<defs>
<clipPath id="clip0_329_323">
<rect width="32" height="32" fill="white" transform="translate(0 0.100586)"/>
</clipPath>
</defs>
</svg>
