<svg width="32" height="33" viewBox="0 0 32 33" fill="none" xmlns="http://www.w3.org/2000/svg">
<path d="M32 3.27661L23.5938 0.163086L15.1875 3.27661V13.9438L22.375 16.606V20.0569L19.3125 21.2478V23.9302L24.875 21.7668V16.5828L32 13.9438V3.27661ZM27.1509 4.14648L23.5938 5.46411L20.0366 4.14648L23.5938 2.8291L27.1509 4.14648ZM17.6875 12.2039V5.94238L22.375 7.67847V13.9399L17.6875 12.2039ZM24.875 13.9167V7.65552L29.5 5.94238V12.2039L24.875 13.9167ZM9.6875 12.2722L12.6875 11.126V8.44971L7.1875 10.5513V15.7024L0 18.3645V29.032L8.40625 32.1453L16.8125 29.0317V18.3645L9.6875 15.7256V12.2722ZM8.40625 20.552L4.84912 19.2346L8.40625 17.917L11.9634 19.2346L8.40625 20.552ZM2.5 21.0305L7.1875 22.7666V29.0281L2.5 27.292V21.0305ZM9.6875 29.0049V22.7434L14.3125 21.0305V27.292L9.6875 29.0049Z" fill="#0665FF"/>
</svg>
