<svg width="58" height="65" viewBox="0 0 58 65" fill="none" xmlns="http://www.w3.org/2000/svg">
<path d="M48.9417 33.75C49.4768 35.4854 51.0953 36.75 53.0038 36.75C55.3473 36.75 57.2538 34.8435 57.2538 32.5C57.2538 30.1565 55.3472 28.25 53.0038 28.25C51.0952 28.25 49.4767 29.5146 48.9417 31.25H41.25V21.5C41.25 20.8097 40.6903 20.25 40 20.25H38V12.7463H45.0027C45.6931 12.7463 46.2527 12.1865 46.2527 11.4963C46.2527 10.806 45.6931 10.2463 45.0027 10.2463H36.75C36.0596 10.2463 35.5 10.806 35.5 11.4963V20.25H30.25V12.5584C31.9852 12.0233 33.25 10.4049 33.25 8.49625C33.25 6.15275 31.3435 4.24625 29 4.24625C26.6565 4.24625 24.75 6.15275 24.75 8.49625C24.75 10.4049 26.0147 12.0234 27.75 12.5584V20.25H18C17.3096 20.25 16.75 20.8097 16.75 21.5V23.5H9.24609V8.81325C10.9833 8.27937 12.25 6.66 12.25 4.75C12.25 2.4065 10.3435 0.5 7.99997 0.5C5.65647 0.5 3.74997 2.4065 3.74997 4.75C3.74997 6.65725 5.01284 8.27475 6.74609 8.811V24.75C6.74609 25.4403 7.30572 26 7.99609 26H16.75V31.25H9.05822C8.52309 29.5146 6.90459 28.25 4.99609 28.25C2.65259 28.25 0.746094 30.1565 0.746094 32.5C0.746094 34.8435 2.65259 36.75 4.99609 36.75C6.90472 36.75 8.52322 35.4854 9.05822 33.75H16.75V43.5C16.75 44.1903 17.3096 44.75 18 44.75H20V52.2537H12.9972C12.3068 52.2537 11.7472 52.8135 11.7472 53.5037C11.7472 54.194 12.3068 54.7537 12.9972 54.7537H21.25C21.9403 54.7537 22.5 54.194 22.5 53.5037V44.75H27.75V52.4416C26.0147 52.9767 24.75 54.5951 24.75 56.5037C24.75 58.8472 26.6565 60.7537 29 60.7537C31.3435 60.7537 33.25 58.8472 33.25 56.5037C33.25 54.5951 31.9852 52.9766 30.25 52.4416V44.75H40C40.6903 44.75 41.25 44.1903 41.25 43.5V41.5H48.7538V56.1867C47.0166 56.7206 45.75 58.34 45.75 60.25C45.75 62.5935 47.6565 64.5 50 64.5C52.3435 64.5 54.25 62.5935 54.25 60.25C54.25 58.3428 52.9871 56.7253 51.2538 56.189V40.25C51.2538 39.5597 50.6942 39 50.0038 39H41.25V33.75H48.9417ZM53.0038 30.75C53.9688 30.75 54.7538 31.535 54.7538 32.5C54.7538 33.465 53.9687 34.25 53.0038 34.25C52.0388 34.25 51.2538 33.465 51.2538 32.5C51.2538 31.535 52.0388 30.75 53.0038 30.75ZM7.99997 6.5C7.03497 6.5 6.24997 5.715 6.24997 4.75C6.24997 3.785 7.03497 3 7.99997 3C8.96497 3 9.74997 3.785 9.74997 4.75C9.74997 5.715 8.96497 6.5 7.99997 6.5ZM4.99609 34.25C4.03109 34.25 3.24609 33.465 3.24609 32.5C3.24609 31.535 4.03109 30.75 4.99609 30.75C5.96109 30.75 6.74609 31.535 6.74609 32.5C6.74609 33.465 5.96109 34.25 4.99609 34.25ZM27.25 8.49625C27.25 7.53125 28.035 6.74625 29 6.74625C29.965 6.74625 30.75 7.53125 30.75 8.49625C30.75 9.46125 29.965 10.2463 29 10.2463C28.035 10.2463 27.25 9.46125 27.25 8.49625ZM30.75 56.5037C30.75 57.4688 29.965 58.2537 29 58.2537C28.035 58.2537 27.25 57.4688 27.25 56.5037C27.25 55.5387 28.035 54.7537 29 54.7537C29.965 54.7537 30.75 55.5387 30.75 56.5037ZM38.75 42.25H19.25V22.75H38.75V42.25ZM50 58.5C50.965 58.5 51.75 59.285 51.75 60.25C51.75 61.215 50.965 62 50 62C49.035 62 48.25 61.215 48.25 60.25C48.25 59.285 49.035 58.5 50 58.5Z" fill="url(#paint0_linear_329_786)"/>
<defs>
<linearGradient id="paint0_linear_329_786" x1="29" y1="0.5" x2="29" y2="64.5" gradientUnits="userSpaceOnUse">
<stop stop-color="#0665FF"/>
<stop offset="1" stop-color="#C600E7"/>
</linearGradient>
</defs>
</svg>
