<svg width="64" height="65" viewBox="0 0 64 65" fill="none" xmlns="http://www.w3.org/2000/svg">
<g clip-path="url(#clip0_329_462)">
<path fill-rule="evenodd" clip-rule="evenodd" d="M32.1752 26.7046C32.5257 27.2993 33.292 27.4973 33.8868 27.1468C35.5725 26.1532 36.7082 24.3157 36.7082 22.2117C36.7082 19.0498 34.1449 16.4865 30.9829 16.4865C27.8211 16.4865 25.2578 19.0498 25.2578 22.2117C25.2578 24.09 26.1636 25.7569 27.5568 26.7989C28.1096 27.2124 28.893 27.0994 29.3065 26.5465C29.7199 25.9937 29.6069 25.2103 29.0541 24.7969C28.2648 24.2065 27.7578 23.2685 27.7578 22.2117C27.7578 20.4305 29.2018 18.9865 30.9829 18.9865C32.7642 18.9865 34.2082 20.4305 34.2082 22.2117C34.2082 23.3946 33.5721 24.4303 32.6174 24.993C32.0226 25.3435 31.8247 26.1098 32.1752 26.7046Z" fill="url(#paint0_linear_329_462)"/>
<path fill-rule="evenodd" clip-rule="evenodd" d="M32.9456 33.6222C33.135 34.286 33.8268 34.6707 34.4906 34.4813C39.8306 32.9578 43.7419 28.0432 43.7419 22.2117C43.7419 15.1659 38.0302 9.4541 30.9843 9.4541C23.9383 9.4541 18.2266 15.1659 18.2266 22.2117C18.2266 27.9384 21.9988 32.7808 27.1909 34.3957C27.8501 34.6007 28.5507 34.2325 28.7558 33.5733C28.9608 32.9141 28.5926 32.2135 27.9334 32.0085C23.7568 30.7094 20.7266 26.8128 20.7266 22.2117C20.7266 16.5466 25.319 11.9541 30.9843 11.9541C36.6495 11.9541 41.2419 16.5466 41.2419 22.2117C41.2419 26.8972 38.0995 30.8519 33.8048 32.0772C33.1409 32.2666 32.7563 32.9583 32.9456 33.6222Z" fill="url(#paint1_linear_329_462)"/>
<path fill-rule="evenodd" clip-rule="evenodd" d="M41.3092 10.3214C43.1643 12.1764 46.1717 12.1764 48.0268 10.3214C49.8818 8.46634 49.8818 5.45889 48.0268 3.60386C46.1717 1.74883 43.1643 1.74883 41.3092 3.60386C39.4542 5.45889 39.4542 8.46634 41.3092 10.3214ZM46.259 8.55361C45.3803 9.43233 43.9557 9.43233 43.077 8.55361C42.1983 7.67489 42.1983 6.25034 43.077 5.37162C43.9557 4.49291 45.3803 4.49291 46.259 5.37162C47.1377 6.25034 47.1377 7.67489 46.259 8.55361Z" fill="url(#paint2_linear_329_462)"/>
<path fill-rule="evenodd" clip-rule="evenodd" d="M13.9421 40.8194C15.7971 42.6745 18.8045 42.6745 20.6596 40.8194C22.5146 38.9644 22.5146 35.9569 20.6596 34.1019C18.8045 32.2469 15.7971 32.2469 13.9421 34.1019C12.087 35.9569 12.087 38.9644 13.9421 40.8194ZM18.8918 39.0517C18.0131 39.9304 16.5885 39.9304 15.7098 39.0517C14.8311 38.1729 14.8311 36.7484 15.7098 35.8697C16.5885 34.991 18.0131 34.991 18.8918 35.8697C19.7705 36.7484 19.7705 38.1729 18.8918 39.0517Z" fill="url(#paint3_linear_329_462)"/>
<path fill-rule="evenodd" clip-rule="evenodd" d="M32.9115 42.6186C33.0173 43.3007 33.6562 43.7679 34.3384 43.662C44.7347 42.0483 52.6914 33.0603 52.6914 22.2118C52.6914 17.295 51.055 12.7571 48.2983 9.11715C47.8815 8.56681 47.0974 8.45855 46.5471 8.87535C45.9968 9.29215 45.8885 10.0762 46.3053 10.6265C48.7446 13.8473 50.1914 17.8587 50.1914 22.2118C50.1914 31.8088 43.1519 39.7641 33.9549 41.1916C33.2727 41.2975 32.8056 41.9364 32.9115 42.6186Z" fill="url(#paint4_linear_329_462)"/>
<path fill-rule="evenodd" clip-rule="evenodd" d="M15.4844 35.6231C16.0327 35.2037 16.1372 34.4191 15.7177 33.8708C13.2444 30.6377 11.7754 26.598 11.7754 22.2117C11.7754 11.9815 19.7736 3.6185 29.8571 3.03598C30.5463 2.99617 31.0727 2.40517 31.0329 1.71597C30.9931 1.02676 30.4021 0.500324 29.7129 0.540142C18.3147 1.19862 9.27539 10.6491 9.27539 22.2117C9.27539 27.1661 10.9369 31.7359 13.7321 35.3898C14.1515 35.9381 14.9361 36.0426 15.4844 35.6231Z" fill="url(#paint5_linear_329_462)"/>
<path fill-rule="evenodd" clip-rule="evenodd" d="M23.1016 64.3702C23.7203 64.064 23.9736 63.3141 23.6673 62.6954L19.0074 53.2816C18.5254 52.2774 18.8981 51.0707 19.8635 50.5134C20.8659 49.9346 22.1471 50.2616 22.7497 51.2501C22.7496 51.2501 22.7497 51.2501 22.7497 51.2501L26.6372 57.6286C26.9287 58.107 27.503 58.333 28.0424 58.1816C28.5818 58.0302 28.9545 57.5383 28.9545 56.9781V28.2978C28.9545 27.2088 29.8374 26.326 30.9264 26.326C32.0154 26.326 32.8982 27.2088 32.8982 28.2978V45.7555C32.8982 46.4458 33.4578 47.0055 34.1482 47.0055C34.8385 47.0055 35.3982 46.4458 35.3982 45.7555C35.3982 44.6665 36.281 43.7837 37.37 43.7837C38.4591 43.7837 39.3418 44.6664 39.3418 45.7555C39.3418 46.4458 39.9014 47.0055 40.5918 47.0055C41.2821 47.0055 41.8418 46.4458 41.8418 45.7555C41.8418 44.6665 42.7246 43.7837 43.8137 43.7837C44.9027 43.7837 45.7855 44.6665 45.7855 45.7555V48.3181C45.7855 49.0084 46.3452 49.5681 47.0355 49.5681C47.7259 49.5681 48.2855 49.0084 48.2855 48.3181C48.2855 47.229 49.1683 46.3462 50.2573 46.3462C51.3463 46.3462 52.2292 47.2291 52.2292 48.3181V63.25C52.2292 63.9403 52.7888 64.5 53.4792 64.5C54.1695 64.5 54.7292 63.9403 54.7292 63.25V48.3181C54.7292 45.8484 52.727 43.8462 50.2573 43.8462C49.4668 43.8462 48.7243 44.0513 48.0799 44.4112C47.5093 42.5983 45.8149 41.2837 43.8137 41.2837C42.5481 41.2837 41.4053 41.8094 40.5918 42.6543C39.7783 41.8094 38.6356 41.2837 37.37 41.2837C36.6623 41.2837 35.993 41.4481 35.3982 41.7408V28.2978C35.3982 25.8282 33.3962 23.826 30.9264 23.826C28.4567 23.826 26.4545 25.8281 26.4545 28.2978V52.5253L24.8844 49.9491C23.5754 47.8014 20.7918 47.0906 18.6135 48.3483C16.5127 49.5612 15.7036 52.1895 16.7586 54.3737C16.7596 54.3759 16.7607 54.3781 16.7617 54.3803C16.7625 54.3817 16.7632 54.3832 16.7639 54.3846L21.4268 63.8045C21.733 64.4232 22.4829 64.6765 23.1016 64.3702Z" fill="url(#paint6_linear_329_462)"/>
<path fill-rule="evenodd" clip-rule="evenodd" d="M34.1465 53.2881C34.8368 53.2881 35.3965 52.7284 35.3965 52.0381V45.7556C35.3965 45.0652 34.8368 44.5056 34.1465 44.5056C33.4561 44.5056 32.8965 45.0652 32.8965 45.7556V52.0381C32.8965 52.7284 33.4561 53.2881 34.1465 53.2881Z" fill="url(#paint7_linear_329_462)"/>
<path fill-rule="evenodd" clip-rule="evenodd" d="M40.5918 53.7432C41.2822 53.7432 41.8418 53.1835 41.8418 52.4932V45.7557C41.8418 45.0653 41.2822 44.5057 40.5918 44.5057C39.9014 44.5057 39.3418 45.0653 39.3418 45.7557V52.4932C39.3418 53.1835 39.9014 53.7432 40.5918 53.7432Z" fill="url(#paint8_linear_329_462)"/>
<path fill-rule="evenodd" clip-rule="evenodd" d="M47.0352 53.8274C47.7255 53.8274 48.2852 53.2677 48.2852 52.5774V48.318C48.2852 47.6277 47.7255 47.068 47.0352 47.068C46.3448 47.068 45.7852 47.6277 45.7852 48.318V52.5774C45.7852 53.2677 46.3448 53.8274 47.0352 53.8274Z" fill="url(#paint9_linear_329_462)"/>
</g>
<defs>
<linearGradient id="paint0_linear_329_462" x1="30.983" y1="27.3201" x2="30.983" y2="16.4865" gradientUnits="userSpaceOnUse">
<stop stop-color="#0665FF"/>
<stop offset="1" stop-color="#C600E7"/>
</linearGradient>
<linearGradient id="paint1_linear_329_462" x1="30.9843" y1="34.5295" x2="30.9843" y2="9.4541" gradientUnits="userSpaceOnUse">
<stop stop-color="#0665FF"/>
<stop offset="1" stop-color="#C600E7"/>
</linearGradient>
<linearGradient id="paint2_linear_329_462" x1="44.668" y1="11.7126" x2="44.668" y2="2.21259" gradientUnits="userSpaceOnUse">
<stop stop-color="#0665FF"/>
<stop offset="1" stop-color="#C600E7"/>
</linearGradient>
<linearGradient id="paint3_linear_329_462" x1="17.3008" y1="42.2107" x2="17.3008" y2="32.7106" gradientUnits="userSpaceOnUse">
<stop stop-color="#0665FF"/>
<stop offset="1" stop-color="#C600E7"/>
</linearGradient>
<linearGradient id="paint4_linear_329_462" x1="42.7939" y1="43.677" x2="42.7939" y2="8.62176" gradientUnits="userSpaceOnUse">
<stop stop-color="#0665FF"/>
<stop offset="1" stop-color="#C600E7"/>
</linearGradient>
<linearGradient id="paint5_linear_329_462" x1="20.1552" y1="35.8804" x2="20.1552" y2="0.538025" gradientUnits="userSpaceOnUse">
<stop stop-color="#0665FF"/>
<stop offset="1" stop-color="#C600E7"/>
</linearGradient>
<linearGradient id="paint6_linear_329_462" x1="35.513" y1="64.5002" x2="35.513" y2="23.826" gradientUnits="userSpaceOnUse">
<stop stop-color="#0665FF"/>
<stop offset="1" stop-color="#C600E7"/>
</linearGradient>
<linearGradient id="paint7_linear_329_462" x1="34.1465" y1="53.2881" x2="34.1465" y2="44.5056" gradientUnits="userSpaceOnUse">
<stop stop-color="#0665FF"/>
<stop offset="1" stop-color="#C600E7"/>
</linearGradient>
<linearGradient id="paint8_linear_329_462" x1="40.5918" y1="53.7432" x2="40.5918" y2="44.5057" gradientUnits="userSpaceOnUse">
<stop stop-color="#0665FF"/>
<stop offset="1" stop-color="#C600E7"/>
</linearGradient>
<linearGradient id="paint9_linear_329_462" x1="47.0352" y1="53.8274" x2="47.0352" y2="47.068" gradientUnits="userSpaceOnUse">
<stop stop-color="#0665FF"/>
<stop offset="1" stop-color="#C600E7"/>
</linearGradient>
<clipPath id="clip0_329_462">
<rect width="64" height="64" fill="white" transform="translate(0 0.5)"/>
</clipPath>
</defs>
</svg>
