<svg width="32" height="28" viewBox="0 0 32 28" fill="none" xmlns="http://www.w3.org/2000/svg">
<path d="M28.25 0.350586H3.75C1.68213 0.350586 0 2.03271 0 4.10059V19.1006C0 21.1685 1.68213 22.8506 3.75 22.8506H14.75V25.3506H8.25V27.8506H23.75V25.3506H17.25V22.8506H28.25C30.3179 22.8506 32 21.1685 32 19.1006V4.10059C32 2.03271 30.3179 0.350586 28.25 0.350586ZM29.5 19.1006C29.5 19.7898 28.9392 20.3506 28.25 20.3506H3.75C3.06079 20.3506 2.5 19.7898 2.5 19.1006V4.10059C2.5 3.41138 3.06079 2.85059 3.75 2.85059H28.25C28.9392 2.85059 29.5 3.41138 29.5 4.10059V19.1006ZM14 4.73315V7.23315C13.3108 7.23315 12.75 7.79395 12.75 8.48315V9.10815C12.75 10.0679 12.3872 10.9441 11.792 11.6082C12.3872 12.2722 12.75 13.1484 12.75 14.1082V14.7332C12.75 15.4224 13.3108 15.9832 14 15.9832V18.4832C11.9321 18.4832 10.25 16.801 10.25 14.7332V14.1082C10.25 13.4189 9.68921 12.8582 9 12.8582V10.3582C9.68921 10.3582 10.25 9.79736 10.25 9.10815V8.48315C10.25 6.41553 11.9321 4.73315 14 4.73315ZM23.375 10.3582V12.8582C22.6858 12.8582 22.125 13.4189 22.125 14.1082V14.7332C22.125 16.801 20.4429 18.4832 18.375 18.4832V15.9832C19.0642 15.9832 19.625 15.4224 19.625 14.7332V14.1082C19.625 13.1484 19.9878 12.2722 20.583 11.6082C19.9878 10.9441 19.625 10.0679 19.625 9.10815V8.48315C19.625 7.79395 19.0642 7.23315 18.375 7.23315V4.73315C20.4429 4.73315 22.125 6.41553 22.125 8.48315V9.10815C22.125 9.79736 22.6858 10.3582 23.375 10.3582Z" fill="#0665FF"/>
</svg>
