<svg width="32" height="28" viewBox="0 0 32 28" fill="none" xmlns="http://www.w3.org/2000/svg">
<path fill-rule="evenodd" clip-rule="evenodd" d="M0 19.0928C0 21.1639 1.67889 22.8428 3.75 22.8428H28.25C30.3211 22.8428 32 21.1639 32 19.0928V4.09277C32 2.02175 30.3211 0.342773 28.25 0.342773H3.75C1.67887 0.342773 0 2.02175 0 4.09277V19.0928ZM3.75 20.3428C3.05961 20.3428 2.5 19.7832 2.5 19.0928V4.09277C2.5 3.40242 3.05963 2.84277 3.75 2.84277H28.25C28.9404 2.84277 29.5 3.40242 29.5 4.09277V19.0928C29.5 19.7832 28.9404 20.3428 28.25 20.3428H3.75Z" fill="#0665FF"/>
<path fill-rule="evenodd" clip-rule="evenodd" d="M8.25 27.8428H23.75V25.3428H8.25V27.8428Z" fill="#0665FF"/>
<path fill-rule="evenodd" clip-rule="evenodd" d="M14.75 21.5928V26.5928H17.25V21.5928H14.75Z" fill="#0665FF"/>
<path fill-rule="evenodd" clip-rule="evenodd" d="M5 17.8428H15.25V5.34278H5V17.8428ZM7.5 15.3428V7.84277H12.75V15.3428H7.5Z" fill="#0665FF"/>
<path fill-rule="evenodd" clip-rule="evenodd" d="M17.75 12.8504H27V5.34277H17.75V12.8504ZM20.25 10.3504V7.84277H24.5V10.3504H20.25Z" fill="#0665FF"/>
<path fill-rule="evenodd" clip-rule="evenodd" d="M17.75 17.8504H27V15.3504H17.75V17.8504Z" fill="#0665FF"/>
</svg>
