<svg width="20" height="20" viewBox="0 0 20 20" fill="none" xmlns="http://www.w3.org/2000/svg">
<g clip-path="url(#clip0_329_671)">
<mask id="mask0_329_671" style="mask-type:luminance" maskUnits="userSpaceOnUse" x="0" y="0" width="20" height="20">
<path d="M18.3428 18.2201L15.2303 15.1076C14.608 15.3449 13.9438 15.4687 13.281 15.4687C10.2656 15.4687 7.81235 13.0155 7.81235 10C7.81235 6.98464 10.2656 4.53141 13.281 4.53141C16.2964 4.53141 18.7496 6.98464 18.7496 10C18.7496 10.5918 18.6568 11.1687 18.4732 11.7215L19.9996 13.248V0.000244141H0V19.9999H19.9996V16.5632L18.3428 18.2201Z" fill="white"/>
</mask>
<g mask="url(#mask0_329_671)">
<path fill-rule="evenodd" clip-rule="evenodd" d="M0 1.40625H14.0622V18.5934H3.12494C1.39909 18.5934 0 17.1943 0 15.4685V1.40625ZM1.56247 2.96872V13.906H4.68741V17.0309H12.4998V2.96872H1.56247ZM3.12494 17.0309V15.4685H1.56247C1.56247 16.3314 2.26201 17.0309 3.12494 17.0309ZM3.12494 4.53119H8.59358V6.09366H3.12494V4.53119ZM3.12494 7.65613H10.5742V9.2186H3.12494V7.65613ZM3.12494 10.7811H10.5742V12.3435H3.12494V10.7811Z" fill="#0665FF"/>
</g>
<path fill-rule="evenodd" clip-rule="evenodd" d="M13.2812 7.65622C11.9868 7.65622 10.9375 8.70552 10.9375 9.99992C10.9375 11.2943 11.9868 12.3436 13.2812 12.3436C14.5756 12.3436 15.6249 11.2943 15.6249 9.99992C15.6249 8.70552 14.5756 7.65622 13.2812 7.65622ZM9.375 9.99992C9.375 7.84259 11.1238 6.09375 13.2812 6.09375C15.4385 6.09375 17.1873 7.84259 17.1873 9.99992C17.1873 10.7556 16.9728 11.4611 16.6013 12.0589L20.0002 15.4579L18.8954 16.5627L15.5282 13.1955C14.8927 13.6432 14.1176 13.9061 13.2812 13.9061C11.1238 13.9061 9.375 12.1573 9.375 9.99992Z" fill="#0665FF"/>
</g>
<defs>
<clipPath id="clip0_329_671">
<rect width="20" height="20" fill="white"/>
</clipPath>
</defs>
</svg>
